<?xml version="1.0" encoding="iso-8859-1"?>
<!-- Generator: Adobe Illustrator 19.0.0, SVG Export Plug-In . SVG Version: 6.00 Build 0)  -->
<svg version="1.1" id="Layer_1" xmlns="http://www.w3.org/2000/svg" xmlns:xlink="http://www.w3.org/1999/xlink" x="0px" y="0px"
	 viewBox="0 0 512 512" style="enable-background:new 0 0 512 512;" xml:space="preserve">
<circle style="fill:#0082CA;" cx="255.998" cy="255.998" r="247.824"/>
<path style="fill:#1E252B;" d="M205.678,88.19c-19.633-2.133-41.988-0.847-68.306,22.705
	c-26.321,23.547-44.727,91.637,6.309,196.173c50.053,102.53,103.704,129.069,151.443,128.354
	c38.792-0.585,64.429-21.713,67.362-27.599c2.933-5.89,6.769-11.022-2.371-21.285c-9.128-10.263-35.408-39.679-40.293-44.661
	c-4.885-4.975-10.585-15.301-23.235-9.311c-12.652,5.997-23.562,10.696-29.582,13.094c-6.017,2.388-29.452,12.364-65.682-59.84
	c-36.23-72.213-24.207-77.16-12.997-81.571c11.201-4.406,20.401-7.938,24.751-11.158c4.351-3.225,9.247-6.153,9.069-15.248
	c-0.179-9.105-0.836-75.132-0.886-78.724C221.207,95.532,217.143,89.436,205.678,88.19z"/>
<g>
	<path style="fill:#FFFFFF;" d="M366.054,334.648c-2.144,0-4.284-0.838-5.889-2.504c-3.131-3.252-3.034-8.426,0.218-11.559
		c16.849-16.227,28.441-36.936,33.522-59.888c5.2-23.482,3.144-47.682-5.943-69.985c-9.088-22.304-24.534-41.049-44.667-54.21
		c-19.679-12.864-42.432-19.611-65.842-19.401c-0.021,0-0.04,0-0.061,0c-4.486,0-8.141-3.62-8.173-8.114
		c-0.033-4.514,3.6-8.2,8.114-8.234c26.637-0.209,52.526,7.435,74.907,22.065c22.926,14.987,40.514,36.331,50.861,61.726
		c10.346,25.393,12.687,52.949,6.766,79.688c-5.78,26.106-18.97,49.664-38.144,68.131
		C370.137,333.889,368.094,334.648,366.054,334.648z"/>
	<path style="fill:#FFFFFF;" d="M335.503,302.87c-2.145,0-4.287-0.839-5.89-2.506c-3.131-3.252-3.032-8.427,0.22-11.559
		c22.037-21.211,28.831-53.185,17.31-81.461c-11.448-28.097-38.392-46.17-68.744-46.17c-0.19,0-0.377,0-0.567,0.002
		c-0.021,0-0.041,0-0.062,0c-4.486,0-8.139-3.62-8.173-8.113c-0.033-4.514,3.6-8.2,8.113-8.235c0.23-0.001,0.463-0.002,0.693-0.002
		c37.034,0,69.907,22.055,83.879,56.349c14.062,34.51,5.775,73.531-21.112,99.408C339.585,302.111,337.543,302.87,335.503,302.87z"
		/>
	<path style="fill:#FFFFFF;" d="M305.563,270.509c-2.087,0-4.175-0.796-5.771-2.386c-3.198-3.187-3.205-8.363-0.019-11.56
		c8.551-8.579,11.124-21.37,6.553-32.586c-4.648-11.403-15.562-18.733-27.853-18.733c-0.108,0-0.213,0.002-0.324,0.001
		c-4.483,0-8.136-3.615-8.173-8.107c-0.037-4.514,3.592-8.204,8.108-8.242c0.13-0.001,0.263-0.001,0.393-0.001
		c18.971,0,35.814,11.313,42.987,28.912c7.056,17.313,3.086,37.057-10.113,50.298C309.755,269.708,307.658,270.509,305.563,270.509z
		"/>
</g>
<path style="fill:#1E252B;" d="M256,511.999c-68.38,0-132.667-26.629-181.019-74.98C26.629,388.667,0,324.38,0,256
	c0-68.379,26.629-132.667,74.981-181.019C123.333,26.63,187.62,0.001,256,0.001s132.667,26.629,181.019,74.98
	C485.371,123.333,512,187.621,512,256c0,68.38-26.629,132.668-74.981,181.019C388.666,485.37,324.38,511.999,256,511.999z
	 M256,16.35c-64.013,0-124.194,24.928-169.459,70.192C41.277,131.806,16.349,191.987,16.349,256s24.928,124.194,70.192,169.458
	S191.986,495.649,256,495.649s124.194-24.927,169.458-70.191S495.65,320.013,495.65,256c0-64.011-24.928-124.194-70.192-169.458
	S320.013,16.35,256,16.35z"/>
<g>
</g>
<g>
</g>
<g>
</g>
<g>
</g>
<g>
</g>
<g>
</g>
<g>
</g>
<g>
</g>
<g>
</g>
<g>
</g>
<g>
</g>
<g>
</g>
<g>
</g>
<g>
</g>
<g>
</g>
</svg>
